<svg width="74" height="74" viewBox="0 0 74 74" fill="none" xmlns="http://www.w3.org/2000/svg">
<g filter="url(#filter0_dd_797_1187)">
<path d="M5 32.9996C5 15.3267 19.3267 1 36.9996 1C54.6725 1 68.9993 15.3267 68.9993 32.9996C68.9993 50.6725 54.6725 64.9993 36.9996 64.9993C19.3267 64.9993 5 50.6725 5 32.9996Z" fill="#905654" shape-rendering="crispEdges"/>
<path d="M23.666 30.333C23.666 30.333 27.666 26.3331 27.666 19.6665" stroke="#BBC5B8" stroke-width="2.66664" stroke-linecap="round" stroke-linejoin="round"/>
<path d="M50.3339 30.333C50.3339 30.333 46.334 26.3331 46.334 19.6665" stroke="#BBC5B8" stroke-width="2.66664" stroke-linecap="round" stroke-linejoin="round"/>
<path d="M34.3326 19.6665C34.3326 25.5331 29.5326 30.333 23.666 30.333" stroke="#BBC5B8" stroke-width="2.66664" stroke-linecap="round" stroke-linejoin="round"/>
<path d="M39.666 19.6665C39.666 25.5331 44.466 30.333 50.3326 30.333" stroke="#BBC5B8" stroke-width="2.66664" stroke-linecap="round" stroke-linejoin="round"/>
<path d="M23.666 30.333C23.666 30.333 26.3327 32.9996 26.3327 36.9996" stroke="#BBC5B8" stroke-width="2.66664" stroke-linecap="round" stroke-linejoin="round"/>
<path d="M50.3327 30.333C50.3327 30.333 47.666 32.9996 47.666 36.9996" stroke="#BBC5B8" stroke-width="2.66664" stroke-linecap="round" stroke-linejoin="round"/>
<path d="M31.666 36.9995H42.3326" stroke="#BBC5B8" stroke-width="2.66664" stroke-linecap="round" stroke-linejoin="round"/>
<path d="M23.666 46.3327V44.9994C23.666 44.2922 23.947 43.6139 24.4471 43.1138C24.9471 42.6137 25.6254 42.3328 26.3327 42.3328H31.6659C32.3732 42.3328 33.0514 42.6137 33.5515 43.1138C34.0516 43.6139 34.3326 44.2922 34.3326 44.9994V46.3327" stroke="#BBC5B8" stroke-width="2.66664" stroke-linecap="round" stroke-linejoin="round"/>
<path d="M39.666 46.3327V44.9994C39.666 44.2922 39.947 43.6139 40.4471 43.1138C40.9471 42.6137 41.6254 42.3328 42.3327 42.3328H47.6659C48.3732 42.3328 49.0514 42.6137 49.5515 43.1138C50.0516 43.6139 50.3326 44.2922 50.3326 44.9994V46.3327" stroke="#BBC5B8" stroke-width="2.66664" stroke-linecap="round" stroke-linejoin="round"/>
</g>
<defs>
<filter id="filter0_dd_797_1187" x="0" y="0" width="74" height="73.9993" filterUnits="userSpaceOnUse" color-interpolation-filters="sRGB">
<feFlood flood-opacity="0" result="BackgroundImageFix"/>
<feColorMatrix in="SourceAlpha" type="matrix" values="0 0 0 0 0 0 0 0 0 0 0 0 0 0 0 0 0 0 127 0" result="hardAlpha"/>
<feMorphology radius="2" operator="erode" in="SourceAlpha" result="effect1_dropShadow_797_1187"/>
<feOffset dy="2"/>
<feGaussianBlur stdDeviation="2"/>
<feComposite in2="hardAlpha" operator="out"/>
<feColorMatrix type="matrix" values="0 0 0 0 0 0 0 0 0 0 0 0 0 0 0 0 0 0 0.1 0"/>
<feBlend mode="normal" in2="BackgroundImageFix" result="effect1_dropShadow_797_1187"/>
<feColorMatrix in="SourceAlpha" type="matrix" values="0 0 0 0 0 0 0 0 0 0 0 0 0 0 0 0 0 0 127 0" result="hardAlpha"/>
<feMorphology radius="1" operator="erode" in="SourceAlpha" result="effect2_dropShadow_797_1187"/>
<feOffset dy="4"/>
<feGaussianBlur stdDeviation="3"/>
<feComposite in2="hardAlpha" operator="out"/>
<feColorMatrix type="matrix" values="0 0 0 0 0 0 0 0 0 0 0 0 0 0 0 0 0 0 0.1 0"/>
<feBlend mode="normal" in2="effect1_dropShadow_797_1187" result="effect2_dropShadow_797_1187"/>
<feBlend mode="normal" in="SourceGraphic" in2="effect2_dropShadow_797_1187" result="shape"/>
</filter>
</defs>
</svg>
