<svg width="36" height="36" viewBox="0 0 36 36" fill="none" xmlns="http://www.w3.org/2000/svg">
<path d="M4.48752 24.5127C4.70808 25.0691 4.75718 25.6787 4.62852 26.2632L3.03104 31.1981C2.97956 31.4484 2.99287 31.7077 3.0697 31.9514C3.14653 32.195 3.28433 32.4151 3.47003 32.5905C3.65574 32.766 3.88319 32.8912 4.13082 32.9541C4.37846 33.017 4.63806 33.0157 4.88502 32.9501L10.0045 31.4531C10.556 31.3437 11.1272 31.3916 11.6529 31.5911C14.856 33.087 18.4844 33.4034 21.898 32.4847C25.3117 31.566 28.2912 29.4711 30.3108 26.5698C32.3304 23.6684 33.2604 20.1469 32.9366 16.6266C32.6129 13.1064 31.0563 9.81359 28.5413 7.32921C26.0264 4.84483 22.7149 3.32852 19.1909 3.04781C15.667 2.7671 12.1571 3.74003 9.28063 5.79494C6.40412 7.84986 4.34582 10.8547 3.46887 14.2793C2.59192 17.7039 2.95269 21.3282 4.48752 24.5127Z" stroke="#202020" stroke-width="2.99997" stroke-linecap="round" stroke-linejoin="round"/>
</svg>
