<svg width="74" height="74" viewBox="0 0 74 74" fill="none" xmlns="http://www.w3.org/2000/svg">
<g filter="url(#filter0_dd_93_1393)">
<path d="M5 33C5 15.3269 19.3269 1 37 1C54.6731 1 69 15.3269 69 33C69 50.6731 54.6731 65 37 65C19.3269 65 5 50.6731 5 33Z" fill="#905654" shape-rendering="crispEdges"/>
<path d="M37 26V33L41.6667 35.3333" stroke="#FAF3E0" stroke-width="2.33333" stroke-linecap="round" stroke-linejoin="round"/>
<path d="M37.0007 44.6666C43.444 44.6666 48.6673 39.4432 48.6673 32.9999C48.6673 26.5566 43.444 21.3333 37.0007 21.3333C30.5573 21.3333 25.334 26.5566 25.334 32.9999C25.334 39.4432 30.5573 44.6666 37.0007 44.6666Z" stroke="#FAF3E0" stroke-width="2.33333" stroke-linecap="round" stroke-linejoin="round"/>
</g>
<defs>
<filter id="filter0_dd_93_1393" x="0" y="0" width="74" height="74" filterUnits="userSpaceOnUse" color-interpolation-filters="sRGB">
<feFlood flood-opacity="0" result="BackgroundImageFix"/>
<feColorMatrix in="SourceAlpha" type="matrix" values="0 0 0 0 0 0 0 0 0 0 0 0 0 0 0 0 0 0 127 0" result="hardAlpha"/>
<feMorphology radius="2" operator="erode" in="SourceAlpha" result="effect1_dropShadow_93_1393"/>
<feOffset dy="2"/>
<feGaussianBlur stdDeviation="2"/>
<feComposite in2="hardAlpha" operator="out"/>
<feColorMatrix type="matrix" values="0 0 0 0 0 0 0 0 0 0 0 0 0 0 0 0 0 0 0.1 0"/>
<feBlend mode="normal" in2="BackgroundImageFix" result="effect1_dropShadow_93_1393"/>
<feColorMatrix in="SourceAlpha" type="matrix" values="0 0 0 0 0 0 0 0 0 0 0 0 0 0 0 0 0 0 127 0" result="hardAlpha"/>
<feMorphology radius="1" operator="erode" in="SourceAlpha" result="effect2_dropShadow_93_1393"/>
<feOffset dy="4"/>
<feGaussianBlur stdDeviation="3"/>
<feComposite in2="hardAlpha" operator="out"/>
<feColorMatrix type="matrix" values="0 0 0 0 0 0 0 0 0 0 0 0 0 0 0 0 0 0 0.1 0"/>
<feBlend mode="normal" in2="effect1_dropShadow_93_1393" result="effect2_dropShadow_93_1393"/>
<feBlend mode="normal" in="SourceGraphic" in2="effect2_dropShadow_93_1393" result="shape"/>
</filter>
</defs>
</svg>
