<svg width="200" height="30" viewBox="0 0 200 30" fill="none" xmlns="http://www.w3.org/2000/svg">
<path d="M10 15H49.9995M149.998 15H189.998" stroke="#FAF3E0" stroke-width="1.99998"/>
<path d="M99.998 4.99994L94.998 9.99994L99.998 14.9999L104.998 9.99994L99.998 4.99994Z" fill="#909A8D"/>
<path d="M70 17.9999C71.6569 17.9999 73 16.6567 73 14.9999C73 13.343 71.6569 11.9999 70 11.9999C68.3431 11.9999 67 13.343 67 14.9999C67 16.6567 68.3431 17.9999 70 17.9999Z" fill="#909A8D"/>
<path d="M129.998 17.9999C131.655 17.9999 132.998 16.6567 132.998 14.9999C132.998 13.343 131.655 11.9999 129.998 11.9999C128.341 11.9999 126.998 13.343 126.998 14.9999C126.998 16.6567 128.341 17.9999 129.998 17.9999Z" fill="#909A8D"/>
<path opacity="0.6" d="M85 14.9999L90 11.9999L95 14.9999L90 17.9999L85 14.9999Z" fill="#909A8D"/>
<path opacity="0.6" d="M104.998 14.9999L109.998 11.9999L114.998 14.9999L109.998 17.9999L104.998 14.9999Z" fill="#909A8D"/>
</svg>
