<svg width="74" height="74" viewBox="0 0 74 74" fill="none" xmlns="http://www.w3.org/2000/svg">
<g filter="url(#filter0_dd_93_1386)">
<path d="M5 33C5 15.3269 19.3269 1 37 1C54.6731 1 69 15.3269 69 33C69 50.6731 54.6731 65 37 65C19.3269 65 5 50.6731 5 33Z" fill="#905654" shape-rendering="crispEdges"/>
<path d="M48.6673 27.1667L38.1778 33.8482C37.8219 34.055 37.4175 34.1639 37.0059 34.1639C36.5943 34.1639 36.1899 34.055 35.834 33.8482L25.334 27.1667" stroke="#FAF3E0" stroke-width="2.33333" stroke-linecap="round" stroke-linejoin="round"/>
<path d="M46.334 23.6667H27.6673C26.3787 23.6667 25.334 24.7114 25.334 26.0001V40.0001C25.334 41.2887 26.3787 42.3334 27.6673 42.3334H46.334C47.6227 42.3334 48.6673 41.2887 48.6673 40.0001V26.0001C48.6673 24.7114 47.6227 23.6667 46.334 23.6667Z" stroke="#FAF3E0" stroke-width="2.33333" stroke-linecap="round" stroke-linejoin="round"/>
</g>
<defs>
<filter id="filter0_dd_93_1386" x="0" y="0" width="74" height="74" filterUnits="userSpaceOnUse" color-interpolation-filters="sRGB">
<feFlood flood-opacity="0" result="BackgroundImageFix"/>
<feColorMatrix in="SourceAlpha" type="matrix" values="0 0 0 0 0 0 0 0 0 0 0 0 0 0 0 0 0 0 127 0" result="hardAlpha"/>
<feMorphology radius="2" operator="erode" in="SourceAlpha" result="effect1_dropShadow_93_1386"/>
<feOffset dy="2"/>
<feGaussianBlur stdDeviation="2"/>
<feComposite in2="hardAlpha" operator="out"/>
<feColorMatrix type="matrix" values="0 0 0 0 0 0 0 0 0 0 0 0 0 0 0 0 0 0 0.1 0"/>
<feBlend mode="normal" in2="BackgroundImageFix" result="effect1_dropShadow_93_1386"/>
<feColorMatrix in="SourceAlpha" type="matrix" values="0 0 0 0 0 0 0 0 0 0 0 0 0 0 0 0 0 0 127 0" result="hardAlpha"/>
<feMorphology radius="1" operator="erode" in="SourceAlpha" result="effect2_dropShadow_93_1386"/>
<feOffset dy="4"/>
<feGaussianBlur stdDeviation="3"/>
<feComposite in2="hardAlpha" operator="out"/>
<feColorMatrix type="matrix" values="0 0 0 0 0 0 0 0 0 0 0 0 0 0 0 0 0 0 0.1 0"/>
<feBlend mode="normal" in2="effect1_dropShadow_93_1386" result="effect2_dropShadow_93_1386"/>
<feBlend mode="normal" in="SourceGraphic" in2="effect2_dropShadow_93_1386" result="shape"/>
</filter>
</defs>
</svg>
