<svg width="40" height="40" viewBox="0 0 40 40" fill="none" xmlns="http://www.w3.org/2000/svg">
<path d="M3.33398 15.8334C3.33402 13.9787 3.89664 12.1677 4.94754 10.6395C5.99844 9.11131 7.48818 7.93784 9.22 7.27407C10.9518 6.61031 12.8442 6.48748 14.6473 6.92181C16.4504 7.35615 18.0794 8.32721 19.319 9.70674C19.4063 9.8001 19.5119 9.87452 19.6291 9.92541C19.7464 9.97629 19.8728 10.0025 20.0007 10.0025C20.1285 10.0025 20.2549 9.97629 20.3722 9.92541C20.4895 9.87452 20.595 9.8001 20.6823 9.70674C21.9181 8.31824 23.5474 7.33902 25.3534 6.89941C27.1594 6.4598 29.0565 6.58065 30.7921 7.24588C32.5277 7.91111 34.0196 9.08916 35.0692 10.6232C36.1187 12.1573 36.6762 13.9747 36.6673 15.8334C36.6673 19.6501 34.1673 22.5001 31.6673 25.0001L22.514 33.8551C22.2034 34.2118 21.8205 34.4983 21.3907 34.6956C20.9609 34.8929 20.4941 34.9965 20.0211 34.9995C19.5482 35.0025 19.0801 34.9048 18.6478 34.713C18.2155 34.5211 17.829 34.2395 17.514 33.8867L8.33398 25.0001C5.83398 22.5001 3.33398 19.6667 3.33398 15.8334Z" stroke="#202020" stroke-width="3.33333" stroke-linecap="round" stroke-linejoin="round"/>
</svg>
