<svg width="66" height="66" viewBox="0 0 66 66" fill="none" xmlns="http://www.w3.org/2000/svg">
<g filter="url(#filter0_dd_93_1282)">
<path d="M5 29C5 13.536 17.536 1 33 1C48.464 1 61 13.536 61 29C61 44.464 48.464 57 33 57C17.536 57 5 44.464 5 29Z" fill="#905654" shape-rendering="crispEdges"/>
<path d="M38.834 17.3334H27.1673C23.9457 17.3334 21.334 19.945 21.334 23.1667V34.8334C21.334 38.055 23.9457 40.6667 27.1673 40.6667H38.834C42.0556 40.6667 44.6673 38.055 44.6673 34.8334V23.1667C44.6673 19.945 42.0556 17.3334 38.834 17.3334Z" stroke="#E5E2D9" stroke-width="2.33333" stroke-linecap="round" stroke-linejoin="round"/>
<path d="M37.6676 28.2651C37.8116 29.2361 37.6458 30.2277 37.1937 31.099C36.7416 31.9702 36.0263 32.6768 35.1495 33.1181C34.2728 33.5594 33.2791 33.713 32.31 33.557C31.3409 33.4011 30.4457 32.9435 29.7516 32.2495C29.0575 31.5554 28.6 30.6601 28.444 29.691C28.2881 28.7219 28.4417 27.7283 28.883 26.8515C29.3243 25.9748 30.0308 25.2595 30.9021 24.8074C31.7734 24.3553 32.765 24.1895 33.736 24.3334C34.7264 24.4803 35.6433 24.9418 36.3513 25.6498C37.0593 26.3578 37.5208 27.2747 37.6676 28.2651Z" stroke="#E5E2D9" stroke-width="2.33333" stroke-linecap="round" stroke-linejoin="round"/>
<path d="M39.416 22.5834H39.4277" stroke="#E5E2D9" stroke-width="2.33333" stroke-linecap="round" stroke-linejoin="round"/>
</g>
<defs>
<filter id="filter0_dd_93_1282" x="0" y="0" width="66" height="66" filterUnits="userSpaceOnUse" color-interpolation-filters="sRGB">
<feFlood flood-opacity="0" result="BackgroundImageFix"/>
<feColorMatrix in="SourceAlpha" type="matrix" values="0 0 0 0 0 0 0 0 0 0 0 0 0 0 0 0 0 0 127 0" result="hardAlpha"/>
<feMorphology radius="2" operator="erode" in="SourceAlpha" result="effect1_dropShadow_93_1282"/>
<feOffset dy="2"/>
<feGaussianBlur stdDeviation="2"/>
<feComposite in2="hardAlpha" operator="out"/>
<feColorMatrix type="matrix" values="0 0 0 0 0 0 0 0 0 0 0 0 0 0 0 0 0 0 0.1 0"/>
<feBlend mode="normal" in2="BackgroundImageFix" result="effect1_dropShadow_93_1282"/>
<feColorMatrix in="SourceAlpha" type="matrix" values="0 0 0 0 0 0 0 0 0 0 0 0 0 0 0 0 0 0 127 0" result="hardAlpha"/>
<feMorphology radius="1" operator="erode" in="SourceAlpha" result="effect2_dropShadow_93_1282"/>
<feOffset dy="4"/>
<feGaussianBlur stdDeviation="3"/>
<feComposite in2="hardAlpha" operator="out"/>
<feColorMatrix type="matrix" values="0 0 0 0 0 0 0 0 0 0 0 0 0 0 0 0 0 0 0.1 0"/>
<feBlend mode="normal" in2="effect1_dropShadow_93_1282" result="effect2_dropShadow_93_1282"/>
<feBlend mode="normal" in="SourceGraphic" in2="effect2_dropShadow_93_1282" result="shape"/>
</filter>
</defs>
</svg>
