<svg width="40" height="40" viewBox="0 0 40 40" fill="none" xmlns="http://www.w3.org/2000/svg">
<path d="M33.3327 16.6667C33.3327 24.9883 24.101 33.655 21.001 36.3317C20.7122 36.5488 20.3607 36.6662 19.9993 36.6662C19.638 36.6662 19.2865 36.5488 18.9977 36.3317C15.8977 33.655 6.66602 24.9883 6.66602 16.6667C6.66602 13.1304 8.07077 9.73906 10.5713 7.23857C13.0717 4.73809 16.4631 3.33333 19.9993 3.33333C23.5356 3.33333 26.927 4.73809 29.4274 7.23857C31.9279 9.73906 33.3327 13.1304 33.3327 16.6667Z" stroke="#202020" stroke-width="3.33333" stroke-linecap="round" stroke-linejoin="round"/>
<path d="M20 21.6667C22.7614 21.6667 25 19.4281 25 16.6667C25 13.9052 22.7614 11.6667 20 11.6667C17.2386 11.6667 15 13.9052 15 16.6667C15 19.4281 17.2386 21.6667 20 21.6667Z" stroke="#202020" stroke-width="3.33333" stroke-linecap="round" stroke-linejoin="round"/>
</svg>
