<svg width="74" height="74" viewBox="0 0 74 74" fill="none" xmlns="http://www.w3.org/2000/svg">
<g filter="url(#filter0_dd_797_1164)">
<path d="M5 32.9996C5 15.3267 19.3267 1 36.9996 1C54.6725 1 68.9993 15.3267 68.9993 32.9996C68.9993 50.6725 54.6725 64.9993 36.9996 64.9993C19.3267 64.9993 5 50.6725 5 32.9996Z" fill="#905654" shape-rendering="crispEdges"/>
<path d="M23.666 29.6663C23.666 28.1826 24.1161 26.7338 24.9568 25.5112C25.7976 24.2887 26.9893 23.3499 28.3748 22.8189C29.7602 22.2879 31.2741 22.1897 32.7166 22.5371C34.1591 22.8846 35.4622 23.6614 36.4539 24.765C36.5237 24.8397 36.6082 24.8993 36.702 24.94C36.7958 24.9807 36.8969 25.0017 36.9992 25.0017C37.1015 25.0017 37.2026 24.9807 37.2964 24.94C37.3902 24.8993 37.4747 24.8397 37.5445 24.765C38.5331 23.6542 39.8365 22.8709 41.2813 22.5192C42.7261 22.1675 44.2438 22.2642 45.6323 22.7964C47.0208 23.3285 48.2142 24.271 49.0539 25.4982C49.8935 26.7255 50.3395 28.1793 50.3324 29.6663C50.3324 32.7196 48.3324 34.9996 46.3324 36.9996L39.0098 44.0835C38.7614 44.3688 38.4551 44.598 38.1112 44.7559C37.7674 44.9137 37.3939 44.9966 37.0156 44.999C36.6373 45.0014 36.2627 44.9233 35.9169 44.7698C35.5711 44.6163 35.2619 44.391 35.0099 44.1088L27.666 36.9996C25.666 34.9996 23.666 32.7329 23.666 29.6663Z" stroke="#BBC5B8" stroke-width="2.66664" stroke-linecap="round" stroke-linejoin="round"/>
</g>
<defs>
<filter id="filter0_dd_797_1164" x="0" y="0" width="74" height="73.9993" filterUnits="userSpaceOnUse" color-interpolation-filters="sRGB">
<feFlood flood-opacity="0" result="BackgroundImageFix"/>
<feColorMatrix in="SourceAlpha" type="matrix" values="0 0 0 0 0 0 0 0 0 0 0 0 0 0 0 0 0 0 127 0" result="hardAlpha"/>
<feMorphology radius="2" operator="erode" in="SourceAlpha" result="effect1_dropShadow_797_1164"/>
<feOffset dy="2"/>
<feGaussianBlur stdDeviation="2"/>
<feComposite in2="hardAlpha" operator="out"/>
<feColorMatrix type="matrix" values="0 0 0 0 0 0 0 0 0 0 0 0 0 0 0 0 0 0 0.1 0"/>
<feBlend mode="normal" in2="BackgroundImageFix" result="effect1_dropShadow_797_1164"/>
<feColorMatrix in="SourceAlpha" type="matrix" values="0 0 0 0 0 0 0 0 0 0 0 0 0 0 0 0 0 0 127 0" result="hardAlpha"/>
<feMorphology radius="1" operator="erode" in="SourceAlpha" result="effect2_dropShadow_797_1164"/>
<feOffset dy="4"/>
<feGaussianBlur stdDeviation="3"/>
<feComposite in2="hardAlpha" operator="out"/>
<feColorMatrix type="matrix" values="0 0 0 0 0 0 0 0 0 0 0 0 0 0 0 0 0 0 0.1 0"/>
<feBlend mode="normal" in2="effect1_dropShadow_797_1164" result="effect2_dropShadow_797_1164"/>
<feBlend mode="normal" in="SourceGraphic" in2="effect2_dropShadow_797_1164" result="shape"/>
</filter>
</defs>
</svg>
