<svg width="20" height="20" viewBox="0 0 20 20" fill="none" xmlns="http://www.w3.org/2000/svg">
<g clip-path="url(#clip0_797_1615)">
<path d="M11.5259 13.8065C11.698 13.8855 11.8919 13.9036 12.0756 13.8577C12.2594 13.8118 12.422 13.7047 12.5367 13.554L12.8326 13.1665C12.9878 12.9595 13.1891 12.7915 13.4205 12.6758C13.6519 12.5601 13.9071 12.4998 14.1659 12.4998H16.6658C17.1079 12.4998 17.5318 12.6754 17.8443 12.988C18.1569 13.3005 18.3325 13.7245 18.3325 14.1665V16.6665C18.3325 17.1085 18.1569 17.5324 17.8443 17.845C17.5318 18.1575 17.1079 18.3331 16.6658 18.3331C12.6876 18.3331 8.87238 16.7528 6.05936 13.9398C3.24635 11.1267 1.66602 7.31148 1.66602 3.33327C1.66602 2.89125 1.84161 2.46733 2.15417 2.15478C2.46672 1.84222 2.89064 1.66663 3.33266 1.66663H5.83263C6.27466 1.66663 6.69858 1.84222 7.01113 2.15478C7.32369 2.46733 7.49928 2.89125 7.49928 3.33327V5.83325C7.49928 6.09198 7.43904 6.34717 7.32333 6.57859C7.20762 6.81002 7.03961 7.01132 6.83262 7.16656L6.44263 7.45906C6.28964 7.57587 6.18181 7.74204 6.13746 7.92935C6.0931 8.11665 6.11495 8.31353 6.1993 8.48655C7.33819 10.7997 9.21128 12.6705 11.5259 13.8065Z" stroke="#202020" stroke-opacity="0.4" stroke-width="1.66665" stroke-linecap="round" stroke-linejoin="round"/>
</g>
<defs>
<clipPath id="clip0_797_1615">
<rect width="19.9998" height="19.9998" fill="white"/>
</clipPath>
</defs>
</svg>
