<svg width="74" height="74" viewBox="0 0 74 74" fill="none" xmlns="http://www.w3.org/2000/svg">
<g filter="url(#filter0_dd_93_1380)">
<path d="M5 33C5 15.3269 19.3269 1 37 1C54.6731 1 69 15.3269 69 33C69 50.6731 54.6731 65 37 65C19.3269 65 5 50.6731 5 33Z" fill="#905654" shape-rendering="crispEdges"/>
<path d="M39.138 38.3293C39.3789 38.4399 39.6504 38.4652 39.9076 38.4009C40.1649 38.3367 40.3925 38.1867 40.5532 37.9758L40.9673 37.4333C41.1847 37.1435 41.4665 36.9083 41.7905 36.7463C42.1145 36.5843 42.4717 36.4999 42.834 36.4999H46.334C46.9528 36.4999 47.5463 36.7458 47.9839 37.1833C48.4215 37.6209 48.6673 38.2144 48.6673 38.8333V42.3333C48.6673 42.9521 48.4215 43.5456 47.9839 43.9832C47.5463 44.4208 46.9528 44.6666 46.334 44.6666C40.7644 44.6666 35.423 42.4541 31.4847 38.5158C27.5465 34.5776 25.334 29.2361 25.334 23.6666C25.334 23.0477 25.5798 22.4543 26.0174 22.0167C26.455 21.5791 27.0485 21.3333 27.6673 21.3333H31.1673C31.7862 21.3333 32.3796 21.5791 32.8172 22.0167C33.2548 22.4543 33.5007 23.0477 33.5007 23.6666V27.1666C33.5007 27.5288 33.4163 27.8861 33.2543 28.2101C33.0923 28.5341 32.8571 28.8159 32.5673 29.0333L32.0213 29.4428C31.8071 29.6063 31.6562 29.8389 31.5941 30.1012C31.532 30.3634 31.5626 30.639 31.6807 30.8813C33.2751 34.1198 35.8975 36.7388 39.138 38.3293Z" stroke="#E5E2D9" stroke-width="2.33333" stroke-linecap="round" stroke-linejoin="round"/>
</g>
<defs>
<filter id="filter0_dd_93_1380" x="0" y="0" width="74" height="74" filterUnits="userSpaceOnUse" color-interpolation-filters="sRGB">
<feFlood flood-opacity="0" result="BackgroundImageFix"/>
<feColorMatrix in="SourceAlpha" type="matrix" values="0 0 0 0 0 0 0 0 0 0 0 0 0 0 0 0 0 0 127 0" result="hardAlpha"/>
<feMorphology radius="2" operator="erode" in="SourceAlpha" result="effect1_dropShadow_93_1380"/>
<feOffset dy="2"/>
<feGaussianBlur stdDeviation="2"/>
<feComposite in2="hardAlpha" operator="out"/>
<feColorMatrix type="matrix" values="0 0 0 0 0 0 0 0 0 0 0 0 0 0 0 0 0 0 0.1 0"/>
<feBlend mode="normal" in2="BackgroundImageFix" result="effect1_dropShadow_93_1380"/>
<feColorMatrix in="SourceAlpha" type="matrix" values="0 0 0 0 0 0 0 0 0 0 0 0 0 0 0 0 0 0 127 0" result="hardAlpha"/>
<feMorphology radius="1" operator="erode" in="SourceAlpha" result="effect2_dropShadow_93_1380"/>
<feOffset dy="4"/>
<feGaussianBlur stdDeviation="3"/>
<feComposite in2="hardAlpha" operator="out"/>
<feColorMatrix type="matrix" values="0 0 0 0 0 0 0 0 0 0 0 0 0 0 0 0 0 0 0.1 0"/>
<feBlend mode="normal" in2="effect1_dropShadow_93_1380" result="effect2_dropShadow_93_1380"/>
<feBlend mode="normal" in="SourceGraphic" in2="effect2_dropShadow_93_1380" result="shape"/>
</filter>
</defs>
</svg>
