<svg width="40" height="40" viewBox="0 0 40 40" fill="none" xmlns="http://www.w3.org/2000/svg">
<path d="M23.054 27.6133C23.3982 27.7714 23.786 27.8075 24.1535 27.7157C24.521 27.6239 24.8462 27.4097 25.0757 27.1083L25.6673 26.3333C25.9778 25.9193 26.3804 25.5833 26.8433 25.3519C27.3061 25.1205 27.8165 25 28.334 25H33.334C34.218 25 35.0659 25.3512 35.691 25.9763C36.3161 26.6014 36.6673 27.4493 36.6673 28.3333V33.3333C36.6673 34.2174 36.3161 35.0652 35.691 35.6903C35.0659 36.3155 34.218 36.6667 33.334 36.6667C25.3775 36.6667 17.7469 33.506 12.1208 27.8799C6.49469 22.2538 3.33398 14.6232 3.33398 6.66666C3.33398 5.78261 3.68517 4.93476 4.31029 4.30964C4.93542 3.68452 5.78326 3.33333 6.66732 3.33333H11.6673C12.5514 3.33333 13.3992 3.68452 14.0243 4.30964C14.6495 4.93476 15.0007 5.78261 15.0007 6.66666V11.6667C15.0007 12.1841 14.8802 12.6945 14.6487 13.1574C14.4173 13.6202 14.0813 14.0228 13.6673 14.3333L12.8873 14.9183C12.5813 15.152 12.3657 15.4843 12.277 15.8589C12.1883 16.2335 12.232 16.6273 12.4007 16.9733C14.6785 21.5998 18.4247 25.3413 23.054 27.6133Z" stroke="#202020" stroke-width="3.33333" stroke-linecap="round" stroke-linejoin="round"/>
</svg>
