<svg width="20" height="20" viewBox="0 0 20 20" fill="none" xmlns="http://www.w3.org/2000/svg">
<path d="M12.1124 18.0716C12.1441 18.1505 12.1991 18.2178 12.2701 18.2645C12.3412 18.3112 12.4248 18.3351 12.5098 18.3329C12.5948 18.3308 12.677 18.3026 12.7456 18.2523C12.8141 18.202 12.8656 18.132 12.8932 18.0516L18.3098 2.21841C18.3365 2.14458 18.3416 2.06467 18.3245 1.98805C18.3074 1.91142 18.2689 1.84125 18.2134 1.78573C18.1578 1.73022 18.0877 1.69167 18.011 1.67458C17.9344 1.65749 17.8545 1.66258 17.7807 1.68925L1.94752 7.10586C1.8671 7.13344 1.79704 7.18496 1.74675 7.2535C1.69645 7.32204 1.66833 7.40433 1.66615 7.48932C1.66398 7.57431 1.68785 7.65793 1.73457 7.72896C1.78129 7.79999 1.84862 7.85502 1.92752 7.88668L8.53578 10.5367C8.74468 10.6203 8.93448 10.7454 9.09374 10.9043C9.253 11.0633 9.37842 11.2529 9.46243 11.4616L12.1124 18.0716Z" stroke="#FAF3E0" stroke-width="1.66665" stroke-linecap="round" stroke-linejoin="round"/>
<path d="M18.2123 1.78918L9.0957 10.9049" stroke="#FAF3E0" stroke-width="1.66665" stroke-linecap="round" stroke-linejoin="round"/>
</svg>
