<svg width="74" height="74" viewBox="0 0 74 74" fill="none" xmlns="http://www.w3.org/2000/svg">
<g filter="url(#filter0_dd_797_1205)">
<path d="M5 32.9996C5 15.3267 19.3267 1 36.9996 1C54.6725 1 68.9993 15.3267 68.9993 32.9996C68.9993 50.6725 54.6725 64.9993 36.9996 64.9993C19.3267 64.9993 5 50.6725 5 32.9996Z" fill="#905654" shape-rendering="crispEdges"/>
<path d="M41.6355 34.186L43.6555 45.5539C43.6781 45.6878 43.6594 45.8253 43.6017 45.9482C43.544 46.0711 43.4502 46.1735 43.3328 46.2416C43.2153 46.3098 43.0799 46.3404 42.9446 46.3295C42.8093 46.3186 42.6805 46.2666 42.5755 46.1806L37.8023 42.5979C37.5718 42.4258 37.2919 42.3328 37.0043 42.3328C36.7166 42.3328 36.4367 42.4258 36.2063 42.5979L31.425 46.1792C31.3201 46.2651 31.1915 46.317 31.0563 46.328C30.9212 46.3389 30.7859 46.3083 30.6685 46.2404C30.5512 46.1724 30.4574 46.0703 30.3996 45.9477C30.3418 45.825 30.3227 45.6877 30.345 45.5539L32.3636 34.186" stroke="#BBC5B8" stroke-width="2.66664" stroke-linecap="round" stroke-linejoin="round"/>
<path d="M36.9999 35.6663C41.4181 35.6663 44.9998 32.0846 44.9998 27.6664C44.9998 23.2482 41.4181 19.6665 36.9999 19.6665C32.5817 19.6665 29 23.2482 29 27.6664C29 32.0846 32.5817 35.6663 36.9999 35.6663Z" stroke="#BBC5B8" stroke-width="2.66664" stroke-linecap="round" stroke-linejoin="round"/>
</g>
<defs>
<filter id="filter0_dd_797_1205" x="0" y="0" width="74" height="73.9993" filterUnits="userSpaceOnUse" color-interpolation-filters="sRGB">
<feFlood flood-opacity="0" result="BackgroundImageFix"/>
<feColorMatrix in="SourceAlpha" type="matrix" values="0 0 0 0 0 0 0 0 0 0 0 0 0 0 0 0 0 0 127 0" result="hardAlpha"/>
<feMorphology radius="2" operator="erode" in="SourceAlpha" result="effect1_dropShadow_797_1205"/>
<feOffset dy="2"/>
<feGaussianBlur stdDeviation="2"/>
<feComposite in2="hardAlpha" operator="out"/>
<feColorMatrix type="matrix" values="0 0 0 0 0 0 0 0 0 0 0 0 0 0 0 0 0 0 0.1 0"/>
<feBlend mode="normal" in2="BackgroundImageFix" result="effect1_dropShadow_797_1205"/>
<feColorMatrix in="SourceAlpha" type="matrix" values="0 0 0 0 0 0 0 0 0 0 0 0 0 0 0 0 0 0 127 0" result="hardAlpha"/>
<feMorphology radius="1" operator="erode" in="SourceAlpha" result="effect2_dropShadow_797_1205"/>
<feOffset dy="4"/>
<feGaussianBlur stdDeviation="3"/>
<feComposite in2="hardAlpha" operator="out"/>
<feColorMatrix type="matrix" values="0 0 0 0 0 0 0 0 0 0 0 0 0 0 0 0 0 0 0.1 0"/>
<feBlend mode="normal" in2="effect1_dropShadow_797_1205" result="effect2_dropShadow_797_1205"/>
<feBlend mode="normal" in="SourceGraphic" in2="effect2_dropShadow_797_1205" result="shape"/>
</filter>
</defs>
</svg>
