<svg width="24" height="24" viewBox="0 0 24 24" fill="none" xmlns="http://www.w3.org/2000/svg">
<path d="M16 5C16.5523 5 17 4.55228 17 4C17 3.44772 16.5523 3 16 3C15.4477 3 15 3.44772 15 4C15 4.55228 15.4477 5 16 5Z" stroke="#FAF3E0" stroke-width="2" stroke-linecap="round" stroke-linejoin="round"/>
<path d="M18 19L19 12L13 13" stroke="#FAF3E0" stroke-width="2" stroke-linecap="round" stroke-linejoin="round"/>
<path d="M5 8L8 5L13.5 8L11.14 11.5" stroke="#FAF3E0" stroke-width="2" stroke-linecap="round" stroke-linejoin="round"/>
<path d="M4.23989 14.5C3.95773 15.4231 3.94878 16.4081 4.21411 17.3361C4.47944 18.2641 5.00772 19.0955 5.73517 19.73C6.46262 20.3644 7.35815 20.7746 8.31365 20.9113C9.26916 21.0479 10.2438 20.9051 11.1199 20.5" stroke="#FAF3E0" stroke-width="2" stroke-linecap="round" stroke-linejoin="round"/>
<path d="M13.7609 17.5002C14.043 16.5772 14.052 15.5922 13.7866 14.6641C13.5213 13.7361 12.993 12.9047 12.2656 12.2703C11.5381 11.6359 10.6426 11.2256 9.6871 11.0889C8.7316 10.9523 7.75697 11.0951 6.88086 11.5002" stroke="#FAF3E0" stroke-width="2" stroke-linecap="round" stroke-linejoin="round"/>
</svg>
