<svg width="37" height="37" viewBox="0 0 37 37" fill="none" xmlns="http://www.w3.org/2000/svg">
<path d="M16.6983 3.02733C16.7698 2.645 16.9726 2.29969 17.2718 2.05119C17.571 1.8027 17.9477 1.66667 18.3367 1.66667C18.7256 1.66667 19.1023 1.8027 19.4015 2.05119C19.7007 2.29969 19.9036 2.645 19.975 3.02733L21.7267 12.2907C21.8511 12.9492 22.1711 13.555 22.6451 14.0289C23.119 14.5029 23.7248 14.8229 24.3833 14.9473L33.6467 16.699C34.029 16.7704 34.3743 16.9733 34.6228 17.2725C34.8713 17.5717 35.0073 17.9484 35.0073 18.3373C35.0073 18.7263 34.8713 19.103 34.6228 19.4022C34.3743 19.7014 34.029 19.9043 33.6467 19.9757L24.3833 21.7273C23.7248 21.8517 23.119 22.1718 22.6451 22.6457C22.1711 23.1196 21.8511 23.7254 21.7267 24.384L19.975 33.6473C19.9036 34.0297 19.7007 34.375 19.4015 34.6235C19.1023 34.872 18.7256 35.008 18.3367 35.008C17.9477 35.008 17.571 34.872 17.2718 34.6235C16.9726 34.375 16.7698 34.0297 16.6983 33.6473L14.9467 24.384C14.8223 23.7254 14.5022 23.1196 14.0283 22.6457C13.5544 22.1718 12.9486 21.8517 12.29 21.7273L3.02667 19.9757C2.64434 19.9043 2.29903 19.7014 2.05054 19.4022C1.80204 19.103 1.66602 18.7263 1.66602 18.3373C1.66602 17.9484 1.80204 17.5717 2.05054 17.2725C2.29903 16.9733 2.64434 16.7704 3.02667 16.699L12.29 14.9473C12.9486 14.8229 13.5544 14.5029 14.0283 14.0289C14.5022 13.555 14.8223 12.9492 14.9467 12.2907L16.6983 3.02733Z" stroke="#D2A17B" stroke-width="3.33333" stroke-linecap="round" stroke-linejoin="round"/>
</svg>
